<svg xmlns="http://www.w3.org/2000/svg" width="129" height="60" viewBox="0 0 129 60" fill="none">
  <path d="M27.9123 0.0261822C28.3964 0.0236605 28.8831 -0.0242501 29.3698 0.0160955C29.6673 0.109395 29.9598 0.225389 30.2649 0.298516C30.0783 1.39541 30.1464 2.515 29.9926 3.61947C29.8766 5.59388 29.5034 7.54812 29.4933 9.5301C30.4919 9.12413 31.7754 8.88205 32.6957 9.59314C33.3085 9.93356 33.5556 10.627 33.7926 11.2423C34.3398 12.8788 33.7649 14.6086 33.9036 16.283C33.954 16.3183 34.0574 16.3889 34.1078 16.4242C34.9677 15.9904 35.1215 14.9616 35.7166 14.2934C35.7544 14.9011 35.4998 15.4634 35.293 16.0157C35.0055 17.0394 33.7775 17.5639 32.7916 17.2765C32.1687 17.168 31.9519 16.4746 31.8888 15.9299C31.7527 14.6162 31.9821 13.2949 31.8586 11.9786C31.7703 11.5196 31.6064 11.0632 31.3139 10.6926C30.8953 10.1882 30.1338 10.0596 29.5437 10.279C29.0924 10.7884 29.3395 11.5222 29.2159 12.1324C29.1025 13.774 28.9587 15.4155 28.7141 17.0445C28.0711 17.2311 27.3146 17.4328 26.6918 17.1075C26.2984 16.9335 26.4876 16.5074 26.5052 16.1821C26.5481 15.5164 26.5733 14.8507 26.6716 14.19C26.1144 14.9112 25.5873 15.6778 24.8863 16.2678C23.8449 16.9764 22.5665 17.5261 21.2855 17.2866C20.5719 17.1958 19.9566 16.7595 19.4573 16.2653C18.8824 15.5794 18.6655 14.6792 18.5773 13.8093C18.0099 14.5859 17.493 15.4332 16.7088 16.0182C16.0053 16.6713 15.1277 17.1504 14.1746 17.2992C13.4004 17.4152 12.6112 17.1882 11.9253 16.8428C11.2621 16.2981 10.6267 15.592 10.4981 14.7095C10.1602 15.36 9.88785 16.0686 9.37092 16.6082C8.57913 17.4177 7.15191 17.6724 6.24917 16.8932C5.94658 16.3334 5.63642 15.7559 5.51034 15.1281C5.49773 13.0856 5.77511 11.0557 6.12814 9.04595C6.41812 6.98076 6.94261 4.95844 7.33346 2.9109C6.76862 2.85038 6.00458 3.17314 5.58095 2.67387C5.70703 2.65117 5.95919 2.60578 6.08274 2.58309C5.88858 2.60074 5.69442 2.62595 5.50278 2.65117C5.5053 2.76464 5.53304 2.87307 5.56834 2.9815C4.2092 2.99411 2.66093 3.40009 1.9221 4.64576C1.54386 5.19042 1.61951 5.88387 1.67498 6.50922C1.76828 7.12449 2.3533 7.44222 2.80718 7.78515C3.25099 8.10792 3.80826 8.17096 4.3378 8.12053C4.31258 8.17096 4.26215 8.2693 4.23693 8.31469C3.43506 8.55424 2.54242 8.53911 1.81367 8.10035C0.832769 7.69185 0.267928 6.69078 0.0661997 5.6897C-0.0876181 4.5222 -0.019534 3.21601 0.772249 2.27293C1.51108 1.46854 2.44155 0.777619 3.52584 0.545632C4.00747 0.419552 4.51935 0.487636 4.99341 0.323731C5.75242 0.0892223 6.55428 0.0312242 7.34355 0.038789C8.7153 0.0892211 10.0971 -0.07216 11.4588 0.127047C12.7751 0.21026 14.0964 0.25817 15.4051 0.36912C15.6926 0.664148 15.9851 0.989434 16.4264 1.02474C16.2221 1.76357 16.0053 2.49735 15.738 3.21601C15.4959 3.27653 15.2513 3.34461 14.9991 3.31939C13.3626 3.2387 11.7286 3.09245 10.0921 3.03698C9.63064 4.4869 9.22718 5.95699 9.0305 7.46743C8.96494 8.15331 8.66739 8.78371 8.53879 9.45446C8.41019 9.95121 8.58417 10.4581 8.55644 10.9624C8.46314 10.7455 8.40766 10.5186 8.33958 10.2967C8.26897 11.676 7.94117 13.0654 8.18324 14.4472C8.20846 14.8129 8.50853 15.0499 8.70269 15.3323C9.20701 15.3853 9.56508 14.9843 9.84246 14.6212C10.0845 14.2682 10.367 13.9 10.3871 13.4537C10.4325 12.8082 10.5031 12.1576 10.7149 11.5423C11.3453 10.0294 12.6944 8.8997 14.2149 8.33991C15.0697 8.06001 16.0532 8.05244 16.8626 8.47607C17.5636 8.84171 17.7855 9.72931 17.6619 10.4606C17.2484 12.029 15.7884 13.2747 14.167 13.4109C13.582 13.489 12.997 13.5899 12.4019 13.5722C12.4246 14.6893 13.3626 15.6349 14.462 15.7509C15.1076 15.9098 15.685 15.5441 16.2473 15.2894C17.1425 14.8658 17.7855 14.0791 18.4008 13.3302C18.7084 12.957 18.5193 12.44 18.6428 12.0063C18.8647 11.1994 19.2934 10.4656 19.7776 9.78983C20.4004 9.09891 21.2426 8.66015 22.0748 8.27182C22.7026 7.93645 23.4415 8.12809 24.1097 8.22139C24.9317 8.31721 25.4991 9.07874 25.6806 9.83522C25.7235 10.9346 25.0427 12.087 23.9861 12.4426C24.2711 11.9912 24.8031 11.6684 24.8763 11.1036C24.9065 10.6825 24.8687 10.1227 24.4123 9.94365C23.6684 9.41915 22.7001 9.78479 22.042 10.2765C20.877 11.4263 20.3676 13.3402 21.1619 14.8356C21.6915 15.7988 22.9926 16.2729 24.0088 15.8366C25.1234 15.4004 25.9631 14.4901 26.6641 13.5546C27.07 9.051 27.4584 4.53733 27.9123 0.0261822ZM13.6476 10.6396C13.0071 11.3129 12.3868 12.145 12.4447 13.1259C13.3324 13.1562 14.225 12.9444 15.0344 12.5964C15.9195 12.2383 16.6256 11.3532 16.6029 10.3748C16.6054 10.0193 16.2196 9.84782 15.9271 9.76713C15.0773 9.64105 14.22 10.0243 13.6476 10.6396ZM6.3929 13.373C6.39794 13.7412 6.36264 14.1396 6.60472 14.4472C6.26935 14.9944 6.66271 15.6122 6.86696 16.1392C6.55933 15.2819 6.72323 14.364 6.68289 13.4714C6.60976 13.4487 6.46603 13.3982 6.3929 13.373ZM19.6464 15.6652C19.8028 15.9778 20.0096 16.2754 20.3273 16.4418C20.1836 16.1165 19.944 15.8543 19.6464 15.6652ZM7.747 16.6208C7.67892 16.8301 7.76213 16.9033 7.99412 16.8377C8.05716 16.6234 7.97395 16.5528 7.747 16.6208Z" fill="#182F59"/>
  <path d="M76.2615 18.1817C76.6397 18.1212 77.0306 18.1515 77.4139 18.159C78.2006 18.3784 78.9621 18.9786 79.1437 19.8031C79.3832 20.6579 79.1613 21.7145 78.4175 22.2642C78.1477 22.4685 77.835 22.6097 77.5299 22.7534C77.1441 22.8114 76.7482 22.7811 76.3598 22.7761C75.558 22.5189 74.7864 21.9238 74.6376 21.0513C74.4132 20.4814 74.6023 19.8712 74.8217 19.3341C75.1167 18.7693 75.6866 18.4188 76.2615 18.1817Z" fill="#5BBC2E"/>
  <path d="M8.42024 18.8702C15.9573 18.8676 23.4969 18.8752 31.034 18.8651C31.039 19.2207 31.0567 19.5762 31.155 19.9191C31.2307 20.8698 31.0592 21.8406 31.2811 22.7786C31.3164 23.7646 31.2155 24.7581 31.4273 25.7314C31.1096 25.734 30.7919 25.734 30.4742 25.739C30.0581 24.2866 29.5261 22.7559 28.3157 21.7675C27.3222 21.0312 26.0538 20.7185 24.8283 20.7639C24.5005 20.7815 24.1979 20.6302 23.8726 20.6428C21.6082 20.6428 19.3438 20.6479 17.0769 20.6403C17.0794 24.5841 17.0794 28.5304 17.0769 32.4767C19.0665 32.4742 21.0585 32.4843 23.0455 32.4717C23.9382 32.3355 24.972 32.1918 25.5394 31.4C26.0891 30.4796 26.4144 29.418 26.4497 28.3438C26.7573 28.3438 27.0675 28.3438 27.3777 28.3463C27.3726 31.8186 27.3751 35.2908 27.3777 38.7631C27.0625 38.7656 26.7498 38.7656 26.4371 38.7656C26.4598 37.7645 26.4749 36.6676 25.8723 35.8103C25.5016 35.3942 25.1259 34.9252 24.5711 34.7588C24.1248 34.6277 23.6709 34.4764 23.1994 34.4915C21.1569 34.4991 19.1169 34.489 17.0769 34.4965C17.082 37.7822 17.0719 41.0678 17.082 44.3535C17.3089 45.3066 17.029 46.3783 17.5863 47.2432C18.1461 47.9417 19.0513 48.2418 19.9087 48.3603C20.4231 48.3729 20.9375 48.3578 21.4519 48.3628C21.4494 48.6755 21.4494 48.9882 21.4519 49.2983C17.1072 49.3059 12.7624 49.3009 8.41772 49.3009C8.41772 48.9857 8.41772 48.6755 8.42277 48.3628C9.37593 48.3477 10.3821 48.4763 11.2697 48.0426C11.7336 47.7753 12.1295 47.3819 12.4044 46.923C12.5481 46.2169 12.7246 45.5033 12.6918 44.7771C12.6893 37.5779 12.6868 30.3813 12.6918 23.1821C12.7145 22.6072 12.596 22.0423 12.4725 21.4825C12.3363 20.948 11.89 20.5773 11.4058 20.3554C10.5157 19.8057 9.43393 19.7729 8.41772 19.8031C8.41772 19.498 8.41772 19.1828 8.42024 18.8702Z" fill="#5BBC2E"/>
  <path d="M43.6922 26.7401C43.9872 27.1763 44.32 27.6328 44.8521 27.7916C45.9263 28.1522 47.0106 28.5153 48.0041 29.0726C48.0066 29.1583 48.0066 29.3273 48.0066 29.4105C47.5426 29.3954 47.0913 29.2516 46.6273 29.297C47.288 29.8139 48.2235 29.8619 49.0178 29.6753C48.5866 28.8482 47.936 28.1396 47.6006 27.2646C48.0293 27.4083 48.4202 27.663 48.7177 28.006C49.5196 28.8936 50.3189 29.7837 51.0603 30.7217C51.6226 31.3143 51.2797 32.1691 51.1788 32.8676C51.3654 32.8323 51.552 32.797 51.7411 32.7667C51.9327 33.6846 52.0462 34.6353 52.432 35.4976C52.6312 35.9969 53.2036 36.0902 53.5869 36.3878C53.9626 36.8038 54.293 37.3157 54.1543 37.9032C53.9198 38.4454 53.5087 38.927 52.9414 39.1414C53.1935 38.6875 53.6575 38.342 53.7357 37.8074C53.7584 37.3435 53.4028 36.9299 52.9767 36.7837C52.4522 36.9274 52.253 37.5477 51.7411 37.7167C50.9619 37.8932 50.1701 37.346 49.4011 37.6637C48.811 37.9159 48.7354 38.6194 48.3395 39.0481C48.0722 39.3532 47.6435 39.2347 47.3006 39.1716C47.6561 38.9749 48.0974 38.8539 48.2966 38.463C48.8009 37.6158 49.2498 36.7357 49.7062 35.8633C49.3204 36.2087 49.0178 36.6324 48.6597 37.003C48.0898 36.2415 47.4014 35.5657 46.9148 34.7437C47.1694 34.7538 47.4241 34.7815 47.6763 34.8193C47.1266 34.4133 46.5239 34.0729 45.8784 33.8384C45.5707 33.7199 45.2505 33.5888 45.0286 33.3366C44.8067 32.9609 44.9706 32.5121 45.016 32.1086C44.7664 32.3028 44.4839 32.5423 44.1435 32.4314C40.7948 31.5892 37.1385 33.8611 36.1097 37.0938C35.4263 39.2977 35.8247 41.8596 37.2822 43.6702C38.248 44.9234 39.6626 45.7757 41.1781 46.1842C42.0228 46.4515 42.9231 46.3758 43.7955 46.3405C45.8935 46.0102 47.7998 44.7065 48.8993 42.891C49.0909 42.5506 49.2447 42.1774 49.5322 41.9C49.5171 42.4749 49.3456 43.0297 49.2876 43.5996C50.039 42.3892 50.45 41.0099 50.9392 39.681C51.3326 41.1511 50.9191 42.7069 50.3618 44.0812C49.1287 47.1525 45.7498 49.2732 42.4389 48.8571C41.5185 48.8142 40.6536 48.4864 39.7711 48.262C40.4872 48.7663 41.3773 48.9151 42.1136 49.3765C37.6882 49.5026 33.5755 45.9522 32.8114 41.6327C32.5366 40.0769 32.5769 38.4479 33.0056 36.9249C33.525 35.2026 34.4782 33.609 35.797 32.3809C33.7848 33.7804 32.4887 36.0776 32.0928 38.4757C31.8936 39.391 32.0549 40.3341 31.9616 41.2595C31.2959 40.034 31.5885 38.5916 31.5305 37.2577C31.765 35.3262 32.466 33.4249 33.6612 31.8791C35.4036 29.5139 38.185 27.9833 41.0899 27.6428C41.8337 27.663 42.5953 27.542 43.3316 27.6529C43.7501 28.011 43.9544 28.5481 44.3175 28.9566C44.1158 28.2203 43.904 27.4815 43.6922 26.7401ZM47.4695 31.806C47.6284 32.6281 48.3899 33.3215 49.2573 33.2055C48.7505 32.6356 48.0848 32.2422 47.4695 31.806Z" fill="#182F59"/>
  <path d="M60.6224 29.1936C61.1696 28.8557 61.8026 28.7473 62.438 28.8129C62.4607 30.293 62.4103 31.7783 62.4657 33.2584C63.3836 31.8035 64.3494 30.2905 65.8497 29.3726C66.4171 29.0221 67.0803 28.8708 67.7359 28.8078C68.3461 28.8935 68.9916 28.9843 69.5035 29.36C70.2928 29.9072 70.8324 30.926 70.5676 31.8892C70.434 32.7415 69.6674 33.4576 68.8151 33.561C67.7914 33.6619 66.9971 32.8978 66.2027 32.3784C65.8749 32.1741 65.4589 31.864 65.0756 32.1161C64.6898 32.2548 64.4099 32.565 64.1527 32.8701C63.5097 33.7098 62.9045 34.5873 62.4607 35.5455C62.4254 38.8463 62.4481 42.1471 62.4506 45.4504C62.5969 46.0959 62.5061 46.7818 62.7935 47.3945C63.0961 48.3326 64.0443 48.968 65.0025 49.0638C65.3782 49.0588 65.7564 49.084 66.117 49.2025C66.117 49.4774 66.1145 49.7497 66.1195 50.0271C62.5666 50.0271 59.0137 50.0321 55.4607 50.0246C55.4607 49.7522 55.4607 49.4799 55.4658 49.2101C55.8112 49.0941 56.1718 49.0563 56.5349 49.0689C57.2788 48.9857 58.1235 48.668 58.4236 47.9216C58.7413 47.2357 58.643 46.4716 58.6556 45.7404C58.6531 41.8672 58.6606 37.9965 58.6531 34.1233C58.5169 33.4324 58.5774 32.4944 57.831 32.1363C57.0796 31.8211 56.2449 32.1061 55.4885 32.27C55.38 31.9724 55.2716 31.6749 55.1833 31.3698C57.0115 30.699 58.7993 29.8971 60.6224 29.1936Z" fill="#5BBC2E"/>
  <path d="M77.1843 29.0827C77.681 28.8003 78.2484 28.7801 78.8031 28.8129C78.8057 34.3175 78.8057 39.8222 78.8057 45.3294C78.8107 45.7984 78.7628 46.28 78.8964 46.7389C78.9368 47.2584 78.9569 47.8182 79.2923 48.2494C79.5546 48.7915 80.185 48.9706 80.7296 49.0664C81.1634 49.0487 81.587 49.1168 82.0056 49.2227C82.0005 49.49 82.0005 49.7573 81.998 50.0271C78.6014 50.0296 75.2048 50.0296 71.8082 50.0271C71.8032 49.7573 71.8032 49.49 71.8032 49.2227C72.131 49.1572 72.4537 49.0487 72.7916 49.0714C73.4825 49.1345 74.2416 48.8067 74.5643 48.1662C74.9501 47.6165 74.8795 46.9155 75.0132 46.2876C75.0207 42.6413 75.0106 38.9926 75.0182 35.3463C75.0384 34.9782 74.877 34.6302 74.8972 34.2646C74.9047 33.5812 74.8039 32.8197 74.3853 32.2649C73.6364 31.7405 72.6782 32.0985 71.8687 32.275C71.7174 31.9775 71.5334 31.6825 71.5485 31.3395C73.4472 30.6385 75.2981 29.8139 77.1843 29.0827Z" fill="#5BBC2E"/>
  <path d="M89.172 28.9287C89.5553 28.7446 89.989 28.8253 90.4 28.8127C90.4126 30.2072 90.3823 31.6041 90.4151 33.0011C91.0808 32.3556 91.7465 31.7075 92.387 31.0368C93.7941 29.781 95.5743 28.79 97.5008 28.8203C98.0909 28.9539 98.7188 28.9312 99.2735 29.2111C101.24 29.9802 102.246 32.1362 102.486 34.1232C102.443 34.7233 102.66 35.2957 102.615 35.8959C102.612 39.4438 102.607 42.9917 102.617 46.5396C102.738 47.3919 102.879 48.5165 103.81 48.8594C104.4 49.1746 105.081 48.9704 105.688 49.2099C105.686 49.4798 105.686 49.7496 105.691 50.0194C102.297 50.0194 98.9028 50.0295 95.5088 50.0143C95.5062 49.742 95.5062 49.4697 95.5037 49.1973C95.9576 49.215 96.3964 49.0738 96.8477 49.0561C97.3823 49.0158 97.9194 48.809 98.2624 48.3803C98.5927 47.8785 98.7944 47.2961 98.8196 46.6934C98.8196 43.1833 98.8171 39.6758 98.8221 36.1657C98.6986 34.915 98.5725 33.5508 97.7479 32.5321C97.0318 31.6823 95.824 31.7126 94.8153 31.8059C93.025 32.1387 91.6154 33.397 90.4025 34.6729C90.4 38.4957 90.3975 42.3209 90.405 46.1437C90.5412 46.8472 90.4555 47.6289 90.9043 48.2391C91.164 48.7788 91.7919 48.9603 92.3341 49.0587C92.8459 49.0284 93.3477 49.1267 93.8495 49.2074C93.847 49.4772 93.847 49.7471 93.847 50.0194C90.4101 50.0219 86.9731 50.0169 83.5362 50.0219C83.5311 49.7496 83.5286 49.4798 83.5236 49.2099C84.2347 49.0864 85.0088 49.1368 85.6543 48.7813C86.4814 48.224 86.4461 47.1574 86.5999 46.2824C86.61 42.5907 86.5974 38.8991 86.605 35.2075C86.6327 34.6074 86.4285 34.0299 86.4764 33.4272C86.3705 32.9078 86.2141 32.2144 85.6216 32.0631C84.9357 31.8109 84.2322 32.1463 83.5564 32.2648C83.395 31.9698 83.221 31.6773 83.1277 31.3545C84.1187 31.0746 85.0063 30.5274 85.9922 30.2349C87.0589 29.8113 88.1154 29.3649 89.172 28.9287Z" fill="#5BBC2E"/>
  <path d="M116.211 28.901C116.766 28.7674 117.361 28.7649 117.916 28.9036C119.446 28.9943 121.002 29.4432 122.26 30.3434C124.073 30.3636 125.887 30.3535 127.7 30.3484C128.194 30.8502 128.088 31.5941 127.942 32.2169C127.778 32.2699 127.621 32.3682 127.447 32.3657C126.293 32.3859 125.14 32.343 123.985 32.3884C124.669 33.2886 124.921 34.4158 125.12 35.5026C125.102 36.3171 125.221 37.1517 124.991 37.946C124.832 38.6672 124.606 39.3959 124.149 39.9885C123.715 40.6315 123.284 41.2998 122.613 41.7209C121.214 42.9691 119.298 43.3851 117.479 43.5062C116.287 43.5238 115.079 43.3977 113.937 43.0371C113.253 43.6423 112.593 44.3408 112.335 45.2385C112.24 45.6924 112.456 46.1866 112.885 46.3808C114.103 46.9582 115.475 46.8195 116.781 46.8422C118.133 47.1423 119.55 46.7716 120.906 47.0692C121.713 47.0238 122.505 47.1726 123.312 47.1902C124.507 47.4323 125.73 47.8811 126.567 48.8066C127.215 49.437 127.609 50.312 127.722 51.2046C127.692 51.8854 127.823 52.594 127.594 53.2521C127.233 54.8004 126.144 56.0385 124.986 57.0673C122.944 58.7896 120.309 59.7781 117.648 59.8789C116.413 60.1361 115.155 59.9193 113.919 59.8159C112.567 59.6495 111.241 59.251 110.021 58.6484C108.891 58.134 107.756 57.4052 107.247 56.2226C107.209 55.8317 107.222 55.4384 107.237 55.045C107.645 53.8019 108.54 52.8134 109.327 51.7947C109.953 51.1365 110.621 50.5162 111.249 49.8581C110.664 49.5832 110.202 49.1243 109.685 48.7511C109.413 48.3829 109.199 47.9568 109.123 47.5029C109.153 46.1917 109.945 45.0544 110.873 44.187C111.407 43.5919 112.038 43.0926 112.618 42.5454C111.584 41.9831 110.621 41.2367 109.99 40.2306C109.41 39.4287 109.11 38.468 108.896 37.5148C108.873 36.7533 108.881 35.9893 108.893 35.2277C109.085 34.1888 109.428 33.1625 110.074 32.3153C110.512 31.7605 110.883 31.1301 111.491 30.7393C112.784 29.5995 114.496 28.9767 116.211 28.901ZM116.431 30.0509C115.929 30.1618 115.397 30.2274 114.96 30.5224C114.131 31.0116 113.576 31.8639 113.233 32.744C112.751 34.0174 112.953 35.3942 112.918 36.7256C113.069 37.7191 113.2 38.7605 113.717 39.6481C114.103 40.3642 114.489 41.1485 115.205 41.5872C116.07 42.2403 117.21 42.3462 118.244 42.1394C119.451 41.8116 120.417 40.7904 120.765 39.6002C121.244 38.3747 121.068 37.0408 121.093 35.7573C120.853 33.861 120.228 31.8286 118.657 30.6132C117.991 30.2148 117.19 30.0307 116.431 30.0509ZM112.613 50.1405C111.962 50.7986 111.347 51.5072 110.976 52.3671C110.608 52.942 110.49 53.6354 110.568 54.3062C110.734 54.8811 111.218 55.277 111.652 55.6552C112.825 56.4319 114.227 56.7698 115.601 56.9967C116.002 56.9993 116.398 57.0346 116.791 57.1228C117.747 57.1304 118.702 57.1405 119.658 57.1178C120.185 56.969 120.742 57.0346 121.269 56.8782C122.896 56.5731 124.487 55.7662 125.46 54.397C125.887 53.7514 126.076 52.9571 125.909 52.2006C125.687 51.5476 125.062 51.1264 124.411 50.9852C123.708 50.8465 122.999 50.7179 122.281 50.7305C121.194 50.4658 120.057 50.7709 118.967 50.5263C118.102 50.4254 117.215 50.6196 116.362 50.3952C115.813 50.3523 115.25 50.4456 114.716 50.2792C114.005 50.3069 113.321 50.0901 112.613 50.1405Z" fill="#5BBC2E"/>
  <path d="M51.2042 44.235C51.6051 43.5087 51.8169 42.7044 52.1473 41.9479C52.1775 43.8391 51.3101 45.6698 50.0291 47.0264C48.902 48.1384 47.4419 49.0588 45.8206 49.1143C48.1077 48.1813 50.1098 46.4716 51.2042 44.235Z" fill="#182F59"/>
</svg>